<svg version="1.0" xmlns="http://www.w3.org/2000/svg"
 width="5pt" height="5pt" viewBox="0 0 500.000000 500.000000"
 preserveAspectRatio="xMidYMid meet">

<g transform="translate(0.000000,500.000000) scale(0.100000,-0.100000)"
  stroke="none">
<path fill="#ff0000" d="M2270 4814 c-311 -36 -509 -100 -703 -228 -405 -267 -648 -704 -749
-1351 -29 -189 -36 -616 -14 -815 52 -449 199 -817 409 -1022 95 -93 174 -132
271 -132 l71 -1 -2 70 c-1 39 -11 198 -22 355 -31 433 -41 635 -41 856 0 639
117 1142 336 1450 169 237 376 349 669 361 256 11 577 -57 885 -186 274 -116
620 -331 843 -524 92 -81 100 -85 88 -54 -42 109 -171 319 -271 442 -70 85
-243 254 -325 316 -298 228 -638 378 -995 438 -110 19 -377 34 -450 25z"/>
<path fill="#ff0000" d="M2455 4050 c-89 -12 -182 -38 -245 -68 -64 -30 -151 -113 -168 -159
l-11 -32 445 -222 c245 -122 515 -262 601 -311 784 -447 1212 -918 1258 -1385
50 -505 -593 -1182 -1448 -1527 -73 -29 -163 -64 -202 -77 l-70 -23 60 -9 c84
-12 392 -1 500 17 212 37 428 111 633 217 224 116 402 249 577 430 271 281
449 624 496 958 15 107 7 361 -15 461 -78 352 -286 689 -604 976 -354 320
-783 567 -1187 685 -202 59 -475 89 -620 69z"/>
<path fill="#ff0000" d="M515 3251 c-452 -690 -412 -1722 93 -2370 247 -317 551 -493 954
-552 121 -18 436 -6 572 21 526 104 1108 409 1479 774 141 138 232 251 306
381 129 225 162 418 98 559 -14 31 -32 59 -40 62 -9 3 -92 -48 -198 -121 -303
-209 -665 -447 -819 -540 -174 -104 -480 -256 -643 -320 -434 -169 -809 -204
-1093 -101 -228 83 -409 293 -539 627 -109 277 -154 523 -162 886 -6 259 5
430 42 648 13 77 22 142 20 144 -2 2 -34 -42 -70 -98z"/>
<path fill="#ffffff" d="M2152 3187 c-56 -17 -118 -81 -143 -145 -29 -77 -32 -178 -22 -772 8
-474 9 -486 31 -535 68 -150 216 -194 375 -111 34 17 168 94 297 170 129 76
309 181 400 234 210 122 269 161 309 208 93 106 85 238 -21 341 -52 50 -941
565 -1036 600 -67 24 -135 28 -190 10z"/>
</g>
</svg>
